Coordinates
version=1
nRows=7
nColumns=40
inDegrees=yes

Units are S.I. units (second, meters, Newtons, ...)
Angles are in degrees.

endheader
time	pelvis_tilt	pelvis_list	pelvis_rotation	pelvis_tx	pelvis_ty	pelvis_tz	hip_flexion_r	hip_adduction_r	hip_rotation_r	knee_angle_r	knee_angle_r_beta	ankle_angle_r	subtalar_angle_r	mtp_angle_r	hip_flexion_l	hip_adduction_l	hip_rotation_l	knee_angle_l	knee_angle_l_beta	ankle_angle_l	subtalar_angle_l	mtp_angle_l	lumbar_extension	lumbar_bending	lumbar_rotation	arm_flex_r	arm_add_r	arm_rot_r	elbow_flex_r	pro_sup_r	wrist_flex_r	wrist_dev_r	arm_flex_l	arm_add_l	arm_rot_l	elbow_flex_l	pro_sup_l	wrist_flex_l	wrist_dev_l
     43.48000000	    -11.74636332	     -6.10286566	      0.02913954	      0.97991360	      0.92252676	      0.49205193	     21.68481506	      3.85705234	    -12.76827698	     19.29473756	     19.29473756	     10.45291796	     -1.71862083	      3.51216289	     37.36609208	    -10.45449600	      8.92228233	     76.20108140	     76.20108140	      8.97460016	    -18.98737620	     14.28668411	    -11.96132953	      1.86617800	      0.96867176	      3.89021078	    -15.17340905	     -4.43977483	     67.41356558	     43.80707369	      0.00000000	      0.00000000	      6.55196654	     -7.06475841	     -9.48693686	     31.48859844	     44.31969426	      0.00000000	      0.00000000
     43.49150000	    -11.71943697	     -6.20464465	     -0.05921732	      0.97929585	      0.92275018	      0.49309673	     20.87235492	      4.12556222	    -12.65550392	     18.87182376	     18.87182376	     10.85627363	     -1.44809960	      3.55923153	     39.12285613	    -10.36787276	      9.14265044	     76.38743444	     76.38743444	      9.54494249	    -19.04777737	     14.67196758	    -11.90997300	      1.76788326	      0.72221117	      6.14540228	    -14.71991387	     -4.54811845	     70.17816908	     43.74884785	      0.00000000	      0.00000000	      5.02594449	     -7.18027767	     -9.41392650	     30.28884686	     44.32186922	      0.00000000	      0.00000000
     43.50300000	    -11.66535639	     -6.26152313	     -0.15069535	      0.97871258	      0.92282645	      0.49400222	     20.11793413	      4.31092152	    -12.56976020	     18.62283836	     18.62283836	     11.41577105	     -1.13876589	      3.68280555	     40.77385580	    -10.17002697	      9.38399399	     76.48309489	     76.48309489	     10.45324484	    -19.09568689	     16.19875316	    -11.95980279	      1.66862574	      1.20119303	      7.34647469	    -15.17194052	     -4.07795042	     75.12402095	     43.64827364	      0.00000000	      0.00000000	      3.90190053	     -7.06401976	     -9.30854517	     29.31251102	     44.39516272	      0.00000000	      0.00000000
     43.51450000	    -11.62179703	     -6.36320942	     -0.21961230	      0.97813962	      0.92292158	      0.49488786	     19.31972363	      4.56153953	    -12.44796464	     18.23529390	     18.23529390	     11.81888181	     -0.93725770	      3.68805270	     42.30199554	    -10.07925720	      9.58746201	     76.28503462	     76.28503462	     10.85325759	    -19.14782437	     16.41036913	    -11.93585405	      1.58998693	      1.14057377	      9.70910791	    -14.74563764	     -4.34657503	     77.47962344	     43.60522965	      0.00000000	      0.00000000	      2.50280799	     -7.08381465	     -9.23684587	     28.43319398	     44.38686573	      0.00000000	      0.00000000
     43.52600000	    -11.55190132	     -6.42960721	     -0.27136331	      0.97758122	      0.92298813	      0.49561664	     18.50783312	      4.75580619	    -12.32749330	     17.87024381	     17.87024381	     12.23387300	     -0.71163631	      3.70974397	     43.67667498	     -9.94933135	      9.74073654	     75.83001555	     75.83001555	     11.28673409	    -19.20704137	     16.96279010	    -11.98069639	      1.51856656	      1.04751931	     11.84636153	    -14.35972995	     -4.29411259	     80.63033000	     43.53161314	      0.00000000	      0.00000000	      1.12706477	     -7.11327728	     -9.14773728	     27.66692173	     44.38302697	      0.00000000	      0.00000000
     43.53750000	    -11.52331126	     -6.47428626	     -0.34789332	      0.97699669	      0.92293575	      0.49616981	     17.77690653	      4.91026879	    -12.20807817	     17.55811495	     17.55811495	     12.65059945	     -0.51478647	      3.69510909	     44.93833527	     -9.81906775	      9.83192751	     75.06616285	     75.06616285	     11.66912763	    -19.25556879	     17.44645651	    -11.95951402	      1.42925668	      1.27950260	     13.99393656	    -14.27501907	     -4.23987988	     83.31266307	     43.46826838	      0.00000000	      0.00000000	     -0.02567093	     -7.04568580	     -9.05816606	     27.13395445	     44.37225300	      0.00000000	      0.00000000
     43.54900000	    -11.50982953	     -6.50545934	     -0.38995124	      0.97640053	      0.92284029	      0.49645791	     17.05571789	      5.01263361	    -12.11155497	     17.23184618	     17.23184618	     13.03083237	     -0.23615623	      3.72941136	     46.06452880	     -9.62830895	      9.94602901	     73.99025400	     73.99025400	     12.17780449	    -19.28404435	     18.39329158	    -12.00260525	      1.35340285	      1.46810586	     15.74814498	    -14.30583674	     -3.69710788	     87.19318158	     43.37087277	      0.00000000	      0.00000000	     -1.20148128	     -7.02191045	     -8.83022687	     26.81447458	     44.35767428	      0.00000000	      0.00000000
